<?xml version="1.0" encoding="UTF-8"?>
<svg xmlns="http://www.w3.org/2000/svg" xmlns:xlink="http://www.w3.org/1999/xlink" width="30pt" height="30.000001pt" viewBox="0 0 30 30.000001" version="1.2">
<defs>
<clipPath id="clip1">
  <path d="M 1.933594 1.453125 L 28.066406 1.453125 L 28.066406 27.582031 L 1.933594 27.582031 Z M 1.933594 1.453125 "/>
</clipPath>
</defs>
<g id="surface1">
<g clip-path="url(#clip1)" clip-rule="nonzero">
<path style=" stroke:none;fill-rule:nonzero;fill:rgb(100%,100%,100%);fill-opacity:1;" d="M 15 1.453125 C 7.785156 1.453125 1.933594 7.300781 1.933594 14.515625 C 1.933594 21.730469 7.785156 27.582031 15 27.582031 C 22.214844 27.582031 28.066406 21.730469 28.066406 14.515625 C 28.066406 7.300781 22.214844 1.453125 15 1.453125 Z M 18.917969 22.355469 L 11.082031 22.355469 C 10.359375 22.355469 9.773438 21.769531 9.773438 21.046875 C 9.773438 20.328125 10.359375 19.742188 11.082031 19.742188 L 18.917969 19.742188 C 19.640625 19.742188 20.226562 20.328125 20.226562 21.046875 C 20.226562 21.769531 19.640625 22.355469 18.917969 22.355469 Z M 20.226562 17.128906 L 9.773438 17.128906 C 9.054688 17.128906 8.46875 16.542969 8.46875 15.824219 C 8.46875 15.101562 9.054688 14.515625 9.773438 14.515625 L 20.226562 14.515625 C 20.945312 14.515625 21.53125 15.101562 21.53125 15.824219 C 21.53125 16.542969 20.945312 17.128906 20.226562 17.128906 Z M 21.53125 11.902344 L 8.46875 11.902344 C 7.746094 11.902344 7.160156 11.316406 7.160156 10.597656 C 7.160156 9.875 7.746094 9.289062 8.46875 9.289062 L 21.53125 9.289062 C 22.253906 9.289062 22.839844 9.875 22.839844 10.597656 C 22.839844 11.316406 22.253906 11.902344 21.53125 11.902344 Z M 21.53125 11.902344 "/>
</g>
</g>
</svg>
