<?xml version="1.0" encoding="UTF-8"?>
<svg xmlns="http://www.w3.org/2000/svg" xmlns:xlink="http://www.w3.org/1999/xlink" width="30pt" height="30.000001pt" viewBox="0 0 30 30.000001" version="1.2">
<defs>
<clipPath id="clip1">
  <path d="M 1.933594 1.453125 L 28.066406 1.453125 L 28.066406 27.582031 L 1.933594 27.582031 Z M 1.933594 1.453125 "/>
</clipPath>
</defs>
<g id="surface1">
<g clip-path="url(#clip1)" clip-rule="nonzero">
<path style=" stroke:none;fill-rule:nonzero;fill:rgb(100%,100%,100%);fill-opacity:1;" d="M 25.5 11.464844 L 17.449219 11.460938 L 17.449219 3.992188 C 17.449219 2.582031 16.304688 1.4375 14.894531 1.4375 C 13.480469 1.4375 12.335938 2.582031 12.335938 3.992188 L 12.335938 11.464844 L 4.5 11.460938 C 3.089844 11.464844 1.941406 12.609375 1.941406 14.019531 C 1.945312 15.429688 3.089844 16.574219 4.5 16.574219 L 12.335938 16.574219 L 12.335938 24.992188 C 12.335938 26.40625 13.480469 27.550781 14.894531 27.550781 C 16.304688 27.550781 17.449219 26.40625 17.449219 24.992188 L 17.449219 16.574219 L 25.5 16.574219 C 26.910156 16.574219 28.058594 15.429688 28.058594 14.019531 C 28.058594 12.609375 26.910156 11.460938 25.5 11.464844 Z M 25.5 11.464844 "/>
</g>
</g>
</svg>
