<?xml version="1.0" encoding="UTF-8"?>
<svg xmlns="http://www.w3.org/2000/svg" xmlns:xlink="http://www.w3.org/1999/xlink" width="30pt" height="30.000001pt" viewBox="0 0 30 30.000001" version="1.2">
<defs>
<clipPath id="clip1">
  <path d="M 1.535156 1.050781 L 28.390625 1.050781 L 28.390625 27.90625 L 1.535156 27.90625 Z M 1.535156 1.050781 "/>
</clipPath>
<filter id="alpha" filterUnits="objectBoundingBox" x="0%" y="0%" width="100%" height="100%">
  <feColorMatrix type="matrix" in="SourceGraphic" values="0 0 0 0 1 0 0 0 0 1 0 0 0 0 1 0 0 0 1 0"/>
</filter>
<mask id="mask0">
  <g filter="url(#alpha)">
<rect x="0" y="0" width="30" height="30.000001" style="fill:rgb(0%,0%,0%);fill-opacity:0.298;stroke:none;"/>
  </g>
</mask>
<clipPath id="clip2">
  <rect x="0" y="0" width="28" height="27"/>
</clipPath>
<g id="surface5" clip-path="url(#clip2)">
<path style=" stroke:none;fill-rule:nonzero;fill:rgb(100%,100%,100%);fill-opacity:1;" d="M 13.964844 1.394531 C 13.171875 1.394531 12.382812 1.472656 11.605469 1.625 C 10.828125 1.78125 10.070312 2.011719 9.335938 2.3125 C 8.605469 2.617188 7.90625 2.988281 7.246094 3.429688 C 6.585938 3.871094 5.976562 4.371094 5.414062 4.933594 C 4.855469 5.496094 4.351562 6.105469 3.914062 6.765625 C 3.472656 7.425781 3.097656 8.121094 2.796875 8.855469 C 2.492188 9.585938 2.261719 10.34375 2.105469 11.121094 C 1.953125 11.898438 1.875 12.6875 1.875 13.480469 C 1.875 14.273438 1.953125 15.058594 2.105469 15.839844 C 2.261719 16.617188 2.492188 17.371094 2.796875 18.105469 C 3.097656 18.839844 3.472656 19.535156 3.914062 20.195312 C 4.351562 20.855469 4.855469 21.464844 5.414062 22.027344 C 5.976562 22.585938 6.585938 23.089844 7.246094 23.53125 C 7.90625 23.96875 8.605469 24.34375 9.335938 24.644531 C 10.070312 24.949219 10.828125 25.179688 11.605469 25.332031 C 12.382812 25.488281 13.171875 25.566406 13.964844 25.566406 C 14.757812 25.566406 15.542969 25.488281 16.320312 25.332031 C 17.101562 25.179688 17.855469 24.949219 18.589844 24.644531 C 19.324219 24.34375 20.019531 23.96875 20.679688 23.53125 C 21.339844 23.089844 21.949219 22.585938 22.511719 22.027344 C 23.074219 21.464844 23.574219 20.855469 24.015625 20.195312 C 24.457031 19.535156 24.828125 18.839844 25.132812 18.105469 C 25.4375 17.371094 25.664062 16.617188 25.820312 15.839844 C 25.976562 15.058594 26.050781 14.273438 26.050781 13.480469 C 26.050781 12.6875 25.976562 11.898438 25.820312 11.121094 C 25.664062 10.34375 25.4375 9.585938 25.132812 8.855469 C 24.828125 8.121094 24.457031 7.425781 24.015625 6.765625 C 23.574219 6.105469 23.074219 5.496094 22.511719 4.933594 C 21.949219 4.371094 21.339844 3.871094 20.679688 3.429688 C 20.019531 2.988281 19.324219 2.617188 18.589844 2.3125 C 17.855469 2.011719 17.101562 1.78125 16.320312 1.625 C 15.542969 1.472656 14.757812 1.394531 13.964844 1.394531 Z M 13.964844 1.394531 "/>
</g>
<clipPath id="clip3">
  <path d="M 1.535156 1.050781 L 28.390625 1.050781 L 28.390625 27.90625 L 1.535156 27.90625 Z M 1.535156 1.050781 "/>
</clipPath>
</defs>
<g id="surface1">
<g clip-path="url(#clip1)" clip-rule="nonzero">
<use xlink:href="#surface5" transform="matrix(1,0,0,1,1,1)" mask="url(#mask0)"/>
</g>
<path style=" stroke:none;fill-rule:nonzero;fill:rgb(100%,100%,100%);fill-opacity:1;" d="M 13.621094 13.136719 L 21.675781 13.136719 L 21.675781 15.824219 L 13.621094 15.824219 Z M 13.621094 19.851562 L 8.25 14.480469 L 13.621094 9.109375 Z M 13.621094 19.851562 "/>
<g clip-path="url(#clip3)" clip-rule="nonzero">
<path style=" stroke:none;fill-rule:nonzero;fill:rgb(100%,100%,100%);fill-opacity:1;" d="M 14.964844 27.90625 C 7.578125 27.90625 1.535156 21.863281 1.535156 14.480469 C 1.535156 7.09375 7.578125 1.050781 14.964844 1.050781 C 22.347656 1.050781 28.390625 7.09375 28.390625 14.480469 C 28.390625 21.863281 22.347656 27.90625 14.964844 27.90625 Z M 14.964844 3.738281 C 9.054688 3.738281 4.222656 8.570312 4.222656 14.480469 C 4.222656 20.386719 9.054688 25.222656 14.964844 25.222656 C 20.871094 25.222656 25.707031 20.386719 25.707031 14.480469 C 25.707031 8.570312 20.871094 3.738281 14.964844 3.738281 Z M 14.964844 3.738281 "/>
</g>
</g>
</svg>
