<?xml version="1.0" encoding="UTF-8"?>
<svg xmlns="http://www.w3.org/2000/svg" xmlns:xlink="http://www.w3.org/1999/xlink" width="30pt" height="30.000001pt" viewBox="0 0 30 30.000001" version="1.2">
<defs>
<clipPath id="clip1">
  <path d="M 4.113281 0.707031 L 25.886719 0.707031 L 25.886719 28.289062 L 4.113281 28.289062 Z M 4.113281 0.707031 "/>
</clipPath>
</defs>
<g id="surface1">
<g clip-path="url(#clip1)" clip-rule="nonzero">
<path style=" stroke:none;fill-rule:nonzero;fill:rgb(100%,100%,100%);fill-opacity:1;" d="M 22.484375 0.710938 L 7.515625 0.710938 C 7.0625 0.710938 6.628906 0.800781 6.214844 0.976562 C 5.796875 1.148438 5.429688 1.398438 5.109375 1.722656 C 4.792969 2.046875 4.546875 2.417969 4.375 2.839844 C 4.199219 3.261719 4.113281 3.699219 4.113281 4.15625 L 4.113281 24.839844 C 4.113281 25.296875 4.199219 25.734375 4.375 26.15625 C 4.546875 26.578125 4.792969 26.953125 5.109375 27.273438 C 5.429688 27.597656 5.796875 27.847656 6.214844 28.023438 C 6.628906 28.195312 7.0625 28.285156 7.515625 28.285156 L 22.484375 28.285156 C 22.9375 28.285156 23.371094 28.195312 23.785156 28.023438 C 24.203125 27.847656 24.570312 27.597656 24.890625 27.273438 C 25.207031 26.953125 25.453125 26.578125 25.625 26.15625 C 25.800781 25.734375 25.886719 25.296875 25.886719 24.839844 L 25.886719 4.15625 C 25.886719 3.699219 25.800781 3.261719 25.625 2.839844 C 25.453125 2.417969 25.207031 2.046875 24.890625 1.722656 C 24.570312 1.398438 24.203125 1.148438 23.785156 0.976562 C 23.371094 0.800781 22.9375 0.710938 22.484375 0.710938 Z M 14.320312 20.011719 L 10.238281 20.011719 C 10.050781 20.011719 9.886719 19.945312 9.753906 19.8125 C 9.621094 19.675781 9.554688 19.515625 9.554688 19.324219 C 9.554688 19.132812 9.621094 18.972656 9.753906 18.835938 C 9.886719 18.703125 10.050781 18.632812 10.238281 18.632812 L 14.320312 18.632812 C 14.507812 18.632812 14.667969 18.703125 14.800781 18.835938 C 14.933594 18.972656 15 19.132812 15 19.324219 C 15 19.515625 14.933594 19.675781 14.800781 19.8125 C 14.667969 19.945312 14.507812 20.011719 14.320312 20.011719 Z M 19.761719 15.878906 L 10.238281 15.878906 C 10.050781 15.878906 9.886719 15.808594 9.753906 15.675781 C 9.621094 15.539062 9.554688 15.378906 9.554688 15.1875 C 9.554688 14.996094 9.621094 14.835938 9.753906 14.699219 C 9.886719 14.566406 10.050781 14.5 10.238281 14.5 L 19.761719 14.5 C 19.949219 14.5 20.113281 14.566406 20.246094 14.699219 C 20.378906 14.835938 20.445312 14.996094 20.445312 15.1875 C 20.445312 15.378906 20.378906 15.539062 20.246094 15.675781 C 20.113281 15.808594 19.949219 15.878906 19.761719 15.878906 Z M 19.761719 11.742188 L 10.238281 11.742188 C 10.050781 11.742188 9.886719 11.671875 9.753906 11.539062 C 9.621094 11.40625 9.554688 11.242188 9.554688 11.050781 C 9.554688 10.859375 9.621094 10.699219 9.753906 10.5625 C 9.886719 10.429688 10.050781 10.363281 10.238281 10.363281 L 19.761719 10.363281 C 19.949219 10.363281 20.113281 10.429688 20.246094 10.5625 C 20.378906 10.699219 20.445312 10.859375 20.445312 11.050781 C 20.445312 11.242188 20.378906 11.40625 20.246094 11.539062 C 20.113281 11.671875 19.949219 11.742188 19.761719 11.742188 Z M 19.761719 7.605469 L 10.238281 7.605469 C 10.050781 7.605469 9.886719 7.539062 9.753906 7.402344 C 9.621094 7.269531 9.554688 7.105469 9.554688 6.914062 C 9.554688 6.726562 9.621094 6.5625 9.753906 6.429688 C 9.886719 6.292969 10.050781 6.226562 10.238281 6.226562 L 19.761719 6.226562 C 19.949219 6.226562 20.113281 6.292969 20.246094 6.429688 C 20.378906 6.5625 20.445312 6.726562 20.445312 6.914062 C 20.445312 7.105469 20.378906 7.269531 20.246094 7.402344 C 20.113281 7.539062 19.949219 7.605469 19.761719 7.605469 Z M 19.761719 7.605469 "/>
</g>
</g>
</svg>
