<?xml version="1.0" encoding="UTF-8"?>
<svg xmlns="http://www.w3.org/2000/svg" xmlns:xlink="http://www.w3.org/1999/xlink" width="30pt" height="30.000001pt" viewBox="0 0 30 30.000001" version="1.2">
<defs>
<clipPath id="clip1">
  <path d="M 1 1.5625 L 28.789062 1.5625 L 28.789062 27.691406 L 1 27.691406 Z M 1 1.5625 "/>
</clipPath>
</defs>
<g id="surface1">
<g clip-path="url(#clip1)" clip-rule="nonzero">
<path style=" stroke:none;fill-rule:nonzero;fill:rgb(100%,100%,100%);fill-opacity:1;" d="M 14.132812 27.691406 C 16.917969 27.691406 19.496094 26.8125 21.617188 25.335938 C 21.972656 25.085938 22.304688 24.828125 22.636719 24.550781 C 22.636719 24.550781 22.636719 24.542969 22.636719 24.542969 C 22.933594 24.292969 23.21875 24.027344 23.496094 23.742188 C 23.535156 23.703125 23.574219 23.664062 23.613281 23.625 C 23.707031 23.53125 23.808594 23.4375 23.898438 23.34375 C 23.945312 23.28125 23.992188 23.21875 24.023438 23.15625 C 24.441406 22.683594 24.835938 22.1875 25.175781 21.664062 L 22.691406 21.664062 C 22.460938 21.9375 22.210938 22.1875 21.957031 22.441406 C 21.839844 22.558594 21.71875 22.675781 21.601562 22.792969 C 21.59375 22.792969 21.59375 22.800781 21.585938 22.808594 C 21.269531 23.089844 20.929688 23.359375 20.585938 23.601562 C 18.769531 24.90625 16.554688 25.683594 14.132812 25.683594 C 7.988281 25.683594 3.023438 20.746094 3.023438 14.628906 C 3.023438 8.511719 7.988281 3.574219 14.132812 3.574219 C 16.546875 3.574219 18.769531 4.34375 20.585938 5.644531 C 20.945312 5.90625 21.292969 6.1875 21.625 6.488281 C 21.710938 6.566406 21.78125 6.644531 21.863281 6.722656 C 22.152344 7.003906 22.4375 7.289062 22.691406 7.59375 L 22.996094 7.59375 C 23.109375 7.609375 23.21875 7.609375 23.320312 7.59375 L 25.175781 7.59375 C 24.828125 7.058594 24.433594 6.566406 24.023438 6.085938 C 23.984375 6.03125 23.945312 5.96875 23.898438 5.921875 C 23.84375 5.851562 23.769531 5.796875 23.707031 5.734375 C 23.566406 5.574219 23.40625 5.425781 23.25 5.269531 C 23.101562 5.128906 22.957031 4.988281 22.808594 4.851562 C 22.636719 4.695312 22.453125 4.554688 22.273438 4.414062 C 22.097656 4.28125 21.941406 4.140625 21.765625 4.011719 C 21.71875 3.988281 21.6875 3.957031 21.640625 3.925781 L 21.640625 3.933594 C 19.511719 2.449219 16.925781 1.5625 14.132812 1.5625 C 6.890625 1.5625 1.003906 7.421875 1.003906 14.628906 C 1.003906 21.835938 6.890625 27.691406 14.132812 27.691406 Z M 23.21875 19.652344 L 28.265625 14.628906 L 23.21875 9.601562 L 23.21875 13.625 L 9.082031 13.625 L 9.082031 15.632812 L 23.21875 15.632812 Z M 23.21875 19.652344 "/>
</g>
</g>
</svg>
