<?xml version="1.0" encoding="UTF-8"?>
<svg xmlns="http://www.w3.org/2000/svg" xmlns:xlink="http://www.w3.org/1999/xlink" width="30pt" height="30.000001pt" viewBox="0 0 30 30.000001" version="1.2">
<defs>
<clipPath id="clip1">
  <path d="M 1.210938 0.726562 L 28.789062 0.726562 L 28.789062 28.304688 L 1.210938 28.304688 Z M 1.210938 0.726562 "/>
</clipPath>
<clipPath id="clip2">
  <path d="M 6 19 L 24 19 L 24 28.304688 L 6 28.304688 Z M 6 19 "/>
</clipPath>
</defs>
<g id="surface1">
<g clip-path="url(#clip1)" clip-rule="nonzero">
<path style=" stroke:none;fill-rule:nonzero;fill:rgb(92.939758%,90.589905%,96.469116%);fill-opacity:1;" d="M 28.789062 14.515625 C 28.789062 15.421875 28.703125 16.320312 28.523438 17.207031 C 28.347656 18.09375 28.085938 18.957031 27.742188 19.792969 C 27.394531 20.628906 26.96875 21.425781 26.464844 22.175781 C 25.964844 22.929688 25.390625 23.628906 24.75 24.265625 C 24.109375 24.90625 23.414062 25.480469 22.660156 25.980469 C 21.910156 26.484375 21.113281 26.910156 20.277344 27.257812 C 19.441406 27.601562 18.578125 27.863281 17.691406 28.042969 C 16.800781 28.21875 15.90625 28.304688 15 28.304688 C 14.09375 28.304688 13.199219 28.21875 12.308594 28.042969 C 11.421875 27.863281 10.558594 27.601562 9.722656 27.257812 C 8.886719 26.910156 8.089844 26.484375 7.339844 25.980469 C 6.585938 25.480469 5.890625 24.90625 5.25 24.265625 C 4.609375 23.628906 4.035156 22.929688 3.535156 22.175781 C 3.03125 21.425781 2.605469 20.628906 2.257812 19.792969 C 1.914062 18.957031 1.652344 18.09375 1.476562 17.207031 C 1.296875 16.320312 1.210938 15.421875 1.210938 14.515625 C 1.210938 13.609375 1.296875 12.714844 1.476562 11.824219 C 1.652344 10.9375 1.914062 10.074219 2.257812 9.238281 C 2.605469 8.402344 3.03125 7.609375 3.535156 6.855469 C 4.035156 6.101562 4.609375 5.40625 5.25 4.765625 C 5.890625 4.125 6.585938 3.554688 7.339844 3.050781 C 8.089844 2.546875 8.886719 2.121094 9.722656 1.777344 C 10.558594 1.429688 11.421875 1.167969 12.308594 0.992188 C 13.199219 0.8125 14.09375 0.726562 15 0.726562 C 15.90625 0.726562 16.800781 0.8125 17.691406 0.992188 C 18.578125 1.167969 19.441406 1.429688 20.277344 1.777344 C 21.113281 2.121094 21.910156 2.546875 22.660156 3.050781 C 23.414062 3.554688 24.109375 4.125 24.75 4.765625 C 25.390625 5.40625 25.964844 6.101562 26.464844 6.855469 C 26.96875 7.609375 27.394531 8.402344 27.742188 9.238281 C 28.085938 10.074219 28.347656 10.9375 28.523438 11.824219 C 28.703125 12.714844 28.789062 13.609375 28.789062 14.515625 Z M 28.789062 14.515625 "/>
</g>
<path style=" stroke:none;fill-rule:nonzero;fill:rgb(74.899292%,21.179199%,4.708862%);fill-opacity:1;" d="M 10.863281 10.550781 L 19.136719 10.550781 L 19.136719 19.859375 L 10.863281 19.859375 Z M 10.863281 10.550781 "/>
<g clip-path="url(#clip2)" clip-rule="nonzero">
<path style=" stroke:none;fill-rule:nonzero;fill:rgb(100%,9.01947%,26.669312%);fill-opacity:1;" d="M 15 28.304688 C 18.089844 28.304688 20.933594 27.277344 23.234375 25.5625 C 22.808594 20.472656 17.757812 19.34375 17.757812 19.34375 L 12.242188 19.34375 C 12.242188 19.34375 7.1875 20.457031 6.765625 25.5625 C 9.066406 27.277344 11.910156 28.304688 15 28.304688 Z M 15 28.304688 "/>
</g>
<path style=" stroke:none;fill-rule:nonzero;fill:rgb(100%,77.648926%,48.239136%);fill-opacity:1;" d="M 15 21.929688 C 14.007812 21.929688 12.585938 19.34375 12.585938 19.34375 L 12.585938 15.894531 L 17.414062 15.894531 L 17.414062 19.34375 C 17.414062 19.34375 15.992188 21.929688 15 21.929688 "/>
<path style=" stroke:none;fill-rule:nonzero;fill:rgb(100%,87.838745%,69.799805%);fill-opacity:1;" d="M 19.828125 13.828125 C 19.828125 16.398438 17.570312 18.652344 15 18.652344 C 12.429688 18.652344 10.171875 16.398438 10.171875 13.828125 L 10.171875 9.691406 C 10.171875 7.117188 19.828125 5.742188 19.828125 9.691406 Z M 15 22.789062 C 17 22.789062 17.414062 19.34375 17.414062 19.34375 C 17.414062 19.34375 16.128906 21.410156 15 21.410156 C 13.871094 21.410156 12.585938 19.34375 12.585938 19.34375 C 12.585938 19.34375 13 22.789062 15 22.789062 "/>
<path style=" stroke:none;fill-rule:nonzero;fill:rgb(47.059631%,27.839661%,9.799194%);fill-opacity:1;" d="M 16.378906 13.136719 C 16.378906 12.757812 16.6875 12.449219 17.070312 12.449219 C 17.449219 12.449219 17.757812 12.757812 17.757812 13.136719 C 17.757812 13.515625 17.449219 13.828125 17.070312 13.828125 C 16.6875 13.828125 16.378906 13.515625 16.378906 13.136719 M 12.242188 13.136719 C 12.242188 13.515625 12.550781 13.828125 12.929688 13.828125 C 13.3125 13.828125 13.621094 13.515625 13.621094 13.136719 C 13.621094 12.757812 13.3125 12.449219 12.929688 12.449219 C 12.550781 12.449219 12.242188 12.757812 12.242188 13.136719 "/>
<path style=" stroke:none;fill-rule:nonzero;fill:rgb(100%,34.118652%,13.328552%);fill-opacity:1;" d="M 15 5.550781 C 11.859375 5.550781 7.414062 6.992188 7.414062 17.273438 L 10.863281 19.859375 L 10.863281 12.449219 L 17.070312 9 L 19.136719 11.757812 L 19.136719 20.03125 L 22.585938 16.585938 C 22.585938 14.503906 22.410156 6.585938 17.070312 6.585938 L 16.378906 5.550781 Z M 15 5.550781 "/>
</g>
</svg>
