<?xml version="1.0" encoding="UTF-8"?>
<svg xmlns="http://www.w3.org/2000/svg" xmlns:xlink="http://www.w3.org/1999/xlink" width="30pt" height="30.000001pt" viewBox="0 0 30 30.000001" version="1.2">
<defs>
<clipPath id="clip1">
  <path d="M 1.933594 0.726562 L 28.789062 0.726562 L 28.789062 27.582031 L 1.933594 27.582031 Z M 1.933594 0.726562 "/>
</clipPath>
</defs>
<g id="surface1">
<path style=" stroke:none;fill-rule:evenodd;fill:rgb(100%,100%,100%);fill-opacity:1;" d="M 19.136719 16.414062 L 18.433594 16.414062 L 18.433594 16.160156 C 20.027344 15.117188 21.015625 13.328125 21.015625 11.382812 C 21.015625 10.769531 20.917969 10.160156 20.722656 9.578125 L 20.648438 9.355469 C 20.683594 9.339844 20.71875 9.328125 20.75 9.316406 C 20.777344 9.289062 22.28125 8.171875 22.699219 6.816406 C 20.964844 6.523438 20.222656 6.941406 18.796875 6.023438 C 15.847656 4.125 12.105469 4.671875 10.214844 8.320312 C 10.074219 8.59375 10.066406 8.804688 10.027344 9.074219 L 9.894531 9.597656 C 9.273438 12.097656 10.183594 14.871094 12.351562 16.25 L 12.351562 16.425781 L 11.65625 16.429688 C 11.011719 16.429688 10.402344 16.632812 9.914062 17.0625 C 9.292969 17.609375 9.105469 18.25 8.894531 19 L 8.4375 20.605469 C 8.894531 21.097656 9.40625 21.539062 9.960938 21.921875 C 11.488281 22.984375 13.347656 23.605469 15.347656 23.605469 C 17.320312 23.605469 19.152344 23 20.667969 21.96875 C 21.25 21.570312 21.789062 21.109375 22.265625 20.597656 L 21.992188 19.160156 C 21.707031 17.640625 20.828125 16.410156 19.136719 16.414062 Z M 11.046875 9.882812 C 11.09375 9.898438 12.71875 8.746094 14.382812 9.480469 C 16.429688 10.386719 18.421875 10.46875 19.59375 9.953125 C 19.746094 10.402344 19.828125 10.882812 19.828125 11.382812 C 19.828125 13.1875 18.769531 14.742188 17.246094 15.46875 L 17.246094 16.421875 L 13.539062 16.421875 L 13.539062 15.542969 C 11.613281 14.6875 10.4375 12.332031 11.046875 9.882812 Z M 11.046875 9.882812 "/>
<g clip-path="url(#clip1)" clip-rule="nonzero">
<path style=" stroke:none;fill-rule:evenodd;fill:rgb(100%,100%,100%);fill-opacity:1;" d="M 15.347656 0.710938 C 22.761719 0.710938 28.773438 6.722656 28.773438 14.136719 C 28.773438 21.554688 22.761719 27.5625 15.347656 27.5625 C 7.933594 27.5625 1.921875 21.554688 1.921875 14.136719 C 1.921875 6.722656 7.933594 0.710938 15.347656 0.710938 Z M 15.347656 2.5625 C 21.738281 2.5625 26.921875 7.746094 26.921875 14.136719 C 26.921875 20.53125 21.738281 25.710938 15.347656 25.710938 C 8.957031 25.710938 3.773438 20.53125 3.773438 14.136719 C 3.773438 7.746094 8.957031 2.5625 15.347656 2.5625 Z M 15.347656 2.5625 "/>
</g>
</g>
</svg>
